<mxfile host="app.diagrams.net" agent="Mozilla/5.0 (Windows NT 10.0; Win64; x64) AppleWebKit/537.36 (KHTML, like Gecko) Chrome/136.0.0.0 Safari/537.36" version="27.0.5">
  <diagram name="Page-1" id="oWovolJ7-k3y0uB0C7Bk">
    <mxGraphModel dx="1830" dy="1617" grid="1" gridSize="10" guides="1" tooltips="1" connect="1" arrows="1" fold="1" page="1" pageScale="1" pageWidth="850" pageHeight="1100" math="0" shadow="0">
      <root>
        <mxCell id="0" />
        <mxCell id="1" parent="0" />
        <mxCell id="zAUFiaAlxXVagcWG81BJ-1" value="&lt;b&gt;Officers&lt;/b&gt;" style="rounded=0;whiteSpace=wrap;html=1;" vertex="1" parent="1">
          <mxGeometry x="120" y="150" width="120" height="50" as="geometry" />
        </mxCell>
        <mxCell id="zAUFiaAlxXVagcWG81BJ-2" value="&lt;b&gt;CriminalRecords&lt;/b&gt;" style="rounded=0;whiteSpace=wrap;html=1;" vertex="1" parent="1">
          <mxGeometry x="500" y="320" width="120" height="50" as="geometry" />
        </mxCell>
        <mxCell id="zAUFiaAlxXVagcWG81BJ-3" value="&lt;b&gt;Criminals&lt;/b&gt;" style="rounded=0;whiteSpace=wrap;html=1;" vertex="1" parent="1">
          <mxGeometry x="220" y="525" width="120" height="50" as="geometry" />
        </mxCell>
        <mxCell id="zAUFiaAlxXVagcWG81BJ-4" value="&lt;b&gt;PoliceStation&lt;/b&gt;" style="rounded=0;whiteSpace=wrap;html=1;" vertex="1" parent="1">
          <mxGeometry x="120" y="-130" width="120" height="50" as="geometry" />
        </mxCell>
        <mxCell id="zAUFiaAlxXVagcWG81BJ-5" value="&lt;b&gt;Victims&lt;/b&gt;" style="rounded=0;whiteSpace=wrap;html=1;" vertex="1" parent="1">
          <mxGeometry x="490" y="-70" width="120" height="50" as="geometry" />
        </mxCell>
        <mxCell id="zAUFiaAlxXVagcWG81BJ-6" value="&lt;b&gt;StationID&lt;/b&gt;" style="ellipse;whiteSpace=wrap;html=1;" vertex="1" parent="1">
          <mxGeometry x="100" y="240" width="120" height="40" as="geometry" />
        </mxCell>
        <mxCell id="zAUFiaAlxXVagcWG81BJ-7" value="&lt;b&gt;&lt;u&gt;OfficerID&lt;/u&gt;&lt;/b&gt;" style="ellipse;whiteSpace=wrap;html=1;" vertex="1" parent="1">
          <mxGeometry x="-20" y="110" width="120" height="40" as="geometry" />
        </mxCell>
        <mxCell id="zAUFiaAlxXVagcWG81BJ-8" value="&lt;b&gt;Position&lt;/b&gt;" style="ellipse;whiteSpace=wrap;html=1;" vertex="1" parent="1">
          <mxGeometry x="-10" y="210" width="120" height="40" as="geometry" />
        </mxCell>
        <mxCell id="zAUFiaAlxXVagcWG81BJ-9" value="&lt;b&gt;OfficerName&lt;/b&gt;" style="ellipse;whiteSpace=wrap;html=1;" vertex="1" parent="1">
          <mxGeometry x="-20" y="160" width="120" height="40" as="geometry" />
        </mxCell>
        <mxCell id="zAUFiaAlxXVagcWG81BJ-10" value="" style="endArrow=none;html=1;rounded=0;exitX=1;exitY=0.5;exitDx=0;exitDy=0;entryX=0;entryY=0.25;entryDx=0;entryDy=0;" edge="1" parent="1" source="zAUFiaAlxXVagcWG81BJ-7" target="zAUFiaAlxXVagcWG81BJ-1">
          <mxGeometry width="50" height="50" relative="1" as="geometry">
            <mxPoint x="130" y="110" as="sourcePoint" />
            <mxPoint x="180" y="60" as="targetPoint" />
          </mxGeometry>
        </mxCell>
        <mxCell id="zAUFiaAlxXVagcWG81BJ-11" value="" style="endArrow=none;html=1;rounded=0;exitX=1;exitY=0.5;exitDx=0;exitDy=0;entryX=0;entryY=0.75;entryDx=0;entryDy=0;" edge="1" parent="1" source="zAUFiaAlxXVagcWG81BJ-9" target="zAUFiaAlxXVagcWG81BJ-1">
          <mxGeometry width="50" height="50" relative="1" as="geometry">
            <mxPoint x="140" y="120" as="sourcePoint" />
            <mxPoint x="190" y="70" as="targetPoint" />
          </mxGeometry>
        </mxCell>
        <mxCell id="zAUFiaAlxXVagcWG81BJ-12" value="" style="endArrow=none;html=1;rounded=0;exitX=1;exitY=0;exitDx=0;exitDy=0;entryX=0.25;entryY=1;entryDx=0;entryDy=0;" edge="1" parent="1" source="zAUFiaAlxXVagcWG81BJ-8" target="zAUFiaAlxXVagcWG81BJ-1">
          <mxGeometry width="50" height="50" relative="1" as="geometry">
            <mxPoint x="150" y="130" as="sourcePoint" />
            <mxPoint x="200" y="80" as="targetPoint" />
          </mxGeometry>
        </mxCell>
        <mxCell id="zAUFiaAlxXVagcWG81BJ-13" value="" style="endArrow=none;html=1;rounded=0;entryX=0.5;entryY=0;entryDx=0;entryDy=0;exitX=0.5;exitY=1;exitDx=0;exitDy=0;" edge="1" parent="1" source="zAUFiaAlxXVagcWG81BJ-1" target="zAUFiaAlxXVagcWG81BJ-6">
          <mxGeometry width="50" height="50" relative="1" as="geometry">
            <mxPoint x="160" y="140" as="sourcePoint" />
            <mxPoint x="210" y="90" as="targetPoint" />
          </mxGeometry>
        </mxCell>
        <mxCell id="zAUFiaAlxXVagcWG81BJ-14" value="&lt;b&gt;HANDLES&lt;/b&gt;" style="rhombus;whiteSpace=wrap;html=1;" vertex="1" parent="1">
          <mxGeometry x="320" y="200" width="80" height="60" as="geometry" />
        </mxCell>
        <mxCell id="zAUFiaAlxXVagcWG81BJ-16" value="" style="endArrow=classic;html=1;rounded=0;exitX=1;exitY=0.5;exitDx=0;exitDy=0;entryX=0;entryY=0;entryDx=0;entryDy=0;" edge="1" parent="1" source="zAUFiaAlxXVagcWG81BJ-1" target="zAUFiaAlxXVagcWG81BJ-14">
          <mxGeometry width="50" height="50" relative="1" as="geometry">
            <mxPoint x="300" y="210" as="sourcePoint" />
            <mxPoint x="350" y="160" as="targetPoint" />
          </mxGeometry>
        </mxCell>
        <mxCell id="zAUFiaAlxXVagcWG81BJ-17" value="" style="endArrow=classic;html=1;rounded=0;entryX=0;entryY=0;entryDx=0;entryDy=0;exitX=1;exitY=1;exitDx=0;exitDy=0;" edge="1" parent="1" source="zAUFiaAlxXVagcWG81BJ-14" target="zAUFiaAlxXVagcWG81BJ-2">
          <mxGeometry width="50" height="50" relative="1" as="geometry">
            <mxPoint x="450" y="220" as="sourcePoint" />
            <mxPoint x="500" y="170" as="targetPoint" />
          </mxGeometry>
        </mxCell>
        <mxCell id="zAUFiaAlxXVagcWG81BJ-18" value="&lt;b&gt;COMMITS&lt;/b&gt;" style="rhombus;whiteSpace=wrap;html=1;" vertex="1" parent="1">
          <mxGeometry x="410" y="430" width="80" height="60" as="geometry" />
        </mxCell>
        <mxCell id="zAUFiaAlxXVagcWG81BJ-19" value="" style="endArrow=classic;html=1;rounded=0;entryX=0;entryY=1;entryDx=0;entryDy=0;exitX=1;exitY=0;exitDx=0;exitDy=0;" edge="1" parent="1" source="zAUFiaAlxXVagcWG81BJ-3" target="zAUFiaAlxXVagcWG81BJ-18">
          <mxGeometry width="50" height="50" relative="1" as="geometry">
            <mxPoint x="500" y="260" as="sourcePoint" />
            <mxPoint x="550" y="210" as="targetPoint" />
          </mxGeometry>
        </mxCell>
        <mxCell id="zAUFiaAlxXVagcWG81BJ-20" value="" style="endArrow=classic;html=1;rounded=0;entryX=0.5;entryY=1;entryDx=0;entryDy=0;exitX=1;exitY=0;exitDx=0;exitDy=0;" edge="1" parent="1" source="zAUFiaAlxXVagcWG81BJ-18" target="zAUFiaAlxXVagcWG81BJ-2">
          <mxGeometry width="50" height="50" relative="1" as="geometry">
            <mxPoint x="430" y="240" as="sourcePoint" />
            <mxPoint x="480" y="190" as="targetPoint" />
          </mxGeometry>
        </mxCell>
        <mxCell id="zAUFiaAlxXVagcWG81BJ-21" value="&lt;b&gt;EMPLOYES&lt;/b&gt;" style="rhombus;whiteSpace=wrap;html=1;" vertex="1" parent="1">
          <mxGeometry x="140" y="10" width="80" height="60" as="geometry" />
        </mxCell>
        <mxCell id="zAUFiaAlxXVagcWG81BJ-22" value="" style="endArrow=classic;html=1;rounded=0;entryX=0.5;entryY=0;entryDx=0;entryDy=0;exitX=0.5;exitY=1;exitDx=0;exitDy=0;" edge="1" parent="1" source="zAUFiaAlxXVagcWG81BJ-21" target="zAUFiaAlxXVagcWG81BJ-1">
          <mxGeometry width="50" height="50" relative="1" as="geometry">
            <mxPoint x="260" y="130" as="sourcePoint" />
            <mxPoint x="310" y="80" as="targetPoint" />
          </mxGeometry>
        </mxCell>
        <mxCell id="zAUFiaAlxXVagcWG81BJ-23" value="" style="endArrow=classic;html=1;rounded=0;entryX=0.5;entryY=0;entryDx=0;entryDy=0;exitX=0.5;exitY=1;exitDx=0;exitDy=0;" edge="1" parent="1" source="zAUFiaAlxXVagcWG81BJ-4" target="zAUFiaAlxXVagcWG81BJ-21">
          <mxGeometry width="50" height="50" relative="1" as="geometry">
            <mxPoint x="170" y="20" as="sourcePoint" />
            <mxPoint x="220" y="-30" as="targetPoint" />
          </mxGeometry>
        </mxCell>
        <mxCell id="zAUFiaAlxXVagcWG81BJ-24" value="&lt;b&gt;HELPS&lt;/b&gt;" style="rhombus;whiteSpace=wrap;html=1;" vertex="1" parent="1">
          <mxGeometry x="330" y="10" width="80" height="60" as="geometry" />
        </mxCell>
        <mxCell id="zAUFiaAlxXVagcWG81BJ-25" value="" style="endArrow=classic;html=1;rounded=0;exitX=1;exitY=0;exitDx=0;exitDy=0;" edge="1" parent="1" source="zAUFiaAlxXVagcWG81BJ-1" target="zAUFiaAlxXVagcWG81BJ-24">
          <mxGeometry width="50" height="50" relative="1" as="geometry">
            <mxPoint x="350" y="160" as="sourcePoint" />
            <mxPoint x="370" y="150" as="targetPoint" />
          </mxGeometry>
        </mxCell>
        <mxCell id="zAUFiaAlxXVagcWG81BJ-26" value="" style="endArrow=classic;html=1;rounded=0;exitX=1;exitY=0;exitDx=0;exitDy=0;entryX=0;entryY=0.5;entryDx=0;entryDy=0;" edge="1" parent="1" source="zAUFiaAlxXVagcWG81BJ-24" target="zAUFiaAlxXVagcWG81BJ-5">
          <mxGeometry width="50" height="50" relative="1" as="geometry">
            <mxPoint x="510" y="100" as="sourcePoint" />
            <mxPoint x="500" y="10" as="targetPoint" />
          </mxGeometry>
        </mxCell>
        <mxCell id="zAUFiaAlxXVagcWG81BJ-27" value="&lt;b&gt;INVOLVED&lt;/b&gt;" style="rhombus;whiteSpace=wrap;html=1;" vertex="1" parent="1">
          <mxGeometry x="610" y="110" width="80" height="60" as="geometry" />
        </mxCell>
        <mxCell id="zAUFiaAlxXVagcWG81BJ-28" value="" style="endArrow=classic;html=1;rounded=0;entryX=0.5;entryY=0;entryDx=0;entryDy=0;exitX=0.5;exitY=1;exitDx=0;exitDy=0;" edge="1" parent="1" source="zAUFiaAlxXVagcWG81BJ-27" target="zAUFiaAlxXVagcWG81BJ-2">
          <mxGeometry width="50" height="50" relative="1" as="geometry">
            <mxPoint x="460" y="280" as="sourcePoint" />
            <mxPoint x="510" y="230" as="targetPoint" />
          </mxGeometry>
        </mxCell>
        <mxCell id="zAUFiaAlxXVagcWG81BJ-29" value="" style="endArrow=classic;html=1;rounded=0;entryX=0.5;entryY=0;entryDx=0;entryDy=0;exitX=0.5;exitY=1;exitDx=0;exitDy=0;" edge="1" parent="1" source="zAUFiaAlxXVagcWG81BJ-5" target="zAUFiaAlxXVagcWG81BJ-27">
          <mxGeometry width="50" height="50" relative="1" as="geometry">
            <mxPoint x="550" y="70" as="sourcePoint" />
            <mxPoint x="600" y="20" as="targetPoint" />
          </mxGeometry>
        </mxCell>
        <mxCell id="zAUFiaAlxXVagcWG81BJ-31" value="&lt;b&gt;ARRESTS&lt;/b&gt;" style="rhombus;whiteSpace=wrap;html=1;" vertex="1" parent="1">
          <mxGeometry x="180" y="340" width="80" height="60" as="geometry" />
        </mxCell>
        <mxCell id="zAUFiaAlxXVagcWG81BJ-33" value="" style="endArrow=classic;html=1;rounded=0;entryX=0.5;entryY=0;entryDx=0;entryDy=0;exitX=1;exitY=1;exitDx=0;exitDy=0;" edge="1" parent="1" source="zAUFiaAlxXVagcWG81BJ-1" target="zAUFiaAlxXVagcWG81BJ-31">
          <mxGeometry width="50" height="50" relative="1" as="geometry">
            <mxPoint x="100" y="490" as="sourcePoint" />
            <mxPoint x="150" y="440" as="targetPoint" />
          </mxGeometry>
        </mxCell>
        <mxCell id="zAUFiaAlxXVagcWG81BJ-34" value="" style="endArrow=classic;html=1;rounded=0;entryX=0.5;entryY=0;entryDx=0;entryDy=0;exitX=0.5;exitY=1;exitDx=0;exitDy=0;" edge="1" parent="1" source="zAUFiaAlxXVagcWG81BJ-31" target="zAUFiaAlxXVagcWG81BJ-3">
          <mxGeometry width="50" height="50" relative="1" as="geometry">
            <mxPoint x="180" y="580" as="sourcePoint" />
            <mxPoint x="230" y="530" as="targetPoint" />
          </mxGeometry>
        </mxCell>
        <mxCell id="zAUFiaAlxXVagcWG81BJ-37" value="&lt;b&gt;ArrestDate&lt;/b&gt;" style="ellipse;whiteSpace=wrap;html=1;" vertex="1" parent="1">
          <mxGeometry x="390" y="575" width="120" height="40" as="geometry" />
        </mxCell>
        <mxCell id="zAUFiaAlxXVagcWG81BJ-38" value="&lt;b&gt;CrimeCommitted&lt;/b&gt;" style="ellipse;whiteSpace=wrap;html=1;" vertex="1" parent="1">
          <mxGeometry x="400" y="530" width="120" height="40" as="geometry" />
        </mxCell>
        <mxCell id="zAUFiaAlxXVagcWG81BJ-39" value="&lt;b&gt;CriminalName&lt;/b&gt;" style="ellipse;whiteSpace=wrap;html=1;" vertex="1" parent="1">
          <mxGeometry x="40" y="560" width="120" height="40" as="geometry" />
        </mxCell>
        <mxCell id="zAUFiaAlxXVagcWG81BJ-40" value="&lt;b&gt;&lt;u&gt;CriminalID&lt;/u&gt;&lt;/b&gt;" style="ellipse;whiteSpace=wrap;html=1;" vertex="1" parent="1">
          <mxGeometry x="60" y="510" width="120" height="40" as="geometry" />
        </mxCell>
        <mxCell id="zAUFiaAlxXVagcWG81BJ-41" value="&lt;b&gt;CriminalAge&lt;/b&gt;" style="ellipse;whiteSpace=wrap;html=1;" vertex="1" parent="1">
          <mxGeometry x="210" y="630" width="120" height="40" as="geometry" />
        </mxCell>
        <mxCell id="zAUFiaAlxXVagcWG81BJ-42" value="&lt;b&gt;Address&lt;/b&gt;" style="ellipse;whiteSpace=wrap;html=1;" vertex="1" parent="1">
          <mxGeometry x="350" y="630" width="120" height="40" as="geometry" />
        </mxCell>
        <mxCell id="zAUFiaAlxXVagcWG81BJ-43" value="&lt;b&gt;Gender&lt;/b&gt;" style="ellipse;whiteSpace=wrap;html=1;" vertex="1" parent="1">
          <mxGeometry x="60" y="610" width="120" height="40" as="geometry" />
        </mxCell>
        <mxCell id="zAUFiaAlxXVagcWG81BJ-46" value="&lt;b&gt;CrimeType&lt;/b&gt;" style="ellipse;whiteSpace=wrap;html=1;" vertex="1" parent="1">
          <mxGeometry x="720" y="250" width="120" height="40" as="geometry" />
        </mxCell>
        <mxCell id="zAUFiaAlxXVagcWG81BJ-47" value="&lt;b&gt;Location&lt;/b&gt;" style="ellipse;whiteSpace=wrap;html=1;" vertex="1" parent="1">
          <mxGeometry x="713" y="294" width="120" height="40" as="geometry" />
        </mxCell>
        <mxCell id="zAUFiaAlxXVagcWG81BJ-48" value="&lt;b&gt;&lt;u&gt;RecordID&lt;/u&gt;&lt;/b&gt;" style="ellipse;whiteSpace=wrap;html=1;" vertex="1" parent="1">
          <mxGeometry x="620" y="220" width="120" height="40" as="geometry" />
        </mxCell>
        <mxCell id="zAUFiaAlxXVagcWG81BJ-49" value="&lt;b&gt;OfficerID&lt;/b&gt;" style="ellipse;whiteSpace=wrap;html=1;" vertex="1" parent="1">
          <mxGeometry x="560" y="420" width="120" height="40" as="geometry" />
        </mxCell>
        <mxCell id="zAUFiaAlxXVagcWG81BJ-50" value="&lt;b&gt;VictimID&lt;/b&gt;" style="ellipse;whiteSpace=wrap;html=1;" vertex="1" parent="1">
          <mxGeometry x="654" y="384" width="120" height="40" as="geometry" />
        </mxCell>
        <mxCell id="zAUFiaAlxXVagcWG81BJ-51" value="&lt;b&gt;CriminalID&lt;/b&gt;" style="ellipse;whiteSpace=wrap;html=1;" vertex="1" parent="1">
          <mxGeometry x="683" y="338" width="120" height="40" as="geometry" />
        </mxCell>
        <mxCell id="zAUFiaAlxXVagcWG81BJ-52" value="" style="endArrow=none;html=1;rounded=0;entryX=0;entryY=0.5;entryDx=0;entryDy=0;exitX=1;exitY=0.5;exitDx=0;exitDy=0;" edge="1" parent="1" source="zAUFiaAlxXVagcWG81BJ-40" target="zAUFiaAlxXVagcWG81BJ-3">
          <mxGeometry width="50" height="50" relative="1" as="geometry">
            <mxPoint x="-180" y="730" as="sourcePoint" />
            <mxPoint x="-130" y="680" as="targetPoint" />
          </mxGeometry>
        </mxCell>
        <mxCell id="zAUFiaAlxXVagcWG81BJ-54" value="" style="endArrow=none;html=1;rounded=0;entryX=0;entryY=0.75;entryDx=0;entryDy=0;exitX=1;exitY=0.5;exitDx=0;exitDy=0;" edge="1" parent="1" source="zAUFiaAlxXVagcWG81BJ-39" target="zAUFiaAlxXVagcWG81BJ-3">
          <mxGeometry width="50" height="50" relative="1" as="geometry">
            <mxPoint x="-170" y="740" as="sourcePoint" />
            <mxPoint x="-120" y="690" as="targetPoint" />
          </mxGeometry>
        </mxCell>
        <mxCell id="zAUFiaAlxXVagcWG81BJ-55" value="" style="endArrow=none;html=1;rounded=0;entryX=0;entryY=0.5;entryDx=0;entryDy=0;exitX=1;exitY=0.25;exitDx=0;exitDy=0;" edge="1" parent="1" source="zAUFiaAlxXVagcWG81BJ-3" target="zAUFiaAlxXVagcWG81BJ-38">
          <mxGeometry width="50" height="50" relative="1" as="geometry">
            <mxPoint x="-160" y="750" as="sourcePoint" />
            <mxPoint x="-110" y="700" as="targetPoint" />
          </mxGeometry>
        </mxCell>
        <mxCell id="zAUFiaAlxXVagcWG81BJ-56" value="" style="endArrow=none;html=1;rounded=0;entryX=0.25;entryY=1;entryDx=0;entryDy=0;exitX=1;exitY=0;exitDx=0;exitDy=0;" edge="1" parent="1" source="zAUFiaAlxXVagcWG81BJ-43" target="zAUFiaAlxXVagcWG81BJ-3">
          <mxGeometry width="50" height="50" relative="1" as="geometry">
            <mxPoint x="-150" y="760" as="sourcePoint" />
            <mxPoint x="-100" y="710" as="targetPoint" />
          </mxGeometry>
        </mxCell>
        <mxCell id="zAUFiaAlxXVagcWG81BJ-57" value="" style="endArrow=none;html=1;rounded=0;entryX=0.75;entryY=1;entryDx=0;entryDy=0;exitX=0;exitY=0;exitDx=0;exitDy=0;" edge="1" parent="1" source="zAUFiaAlxXVagcWG81BJ-42" target="zAUFiaAlxXVagcWG81BJ-3">
          <mxGeometry width="50" height="50" relative="1" as="geometry">
            <mxPoint x="-140" y="770" as="sourcePoint" />
            <mxPoint x="-90" y="720" as="targetPoint" />
          </mxGeometry>
        </mxCell>
        <mxCell id="zAUFiaAlxXVagcWG81BJ-58" value="" style="endArrow=none;html=1;rounded=0;entryX=0.5;entryY=1;entryDx=0;entryDy=0;exitX=0.5;exitY=0;exitDx=0;exitDy=0;" edge="1" parent="1" source="zAUFiaAlxXVagcWG81BJ-41" target="zAUFiaAlxXVagcWG81BJ-3">
          <mxGeometry width="50" height="50" relative="1" as="geometry">
            <mxPoint x="-130" y="780" as="sourcePoint" />
            <mxPoint x="280" y="570" as="targetPoint" />
          </mxGeometry>
        </mxCell>
        <mxCell id="zAUFiaAlxXVagcWG81BJ-59" value="" style="endArrow=none;html=1;rounded=0;entryX=1;entryY=0.75;entryDx=0;entryDy=0;exitX=0;exitY=0.5;exitDx=0;exitDy=0;" edge="1" parent="1" source="zAUFiaAlxXVagcWG81BJ-37" target="zAUFiaAlxXVagcWG81BJ-3">
          <mxGeometry width="50" height="50" relative="1" as="geometry">
            <mxPoint x="-150" y="760" as="sourcePoint" />
            <mxPoint x="-100" y="710" as="targetPoint" />
          </mxGeometry>
        </mxCell>
        <mxCell id="zAUFiaAlxXVagcWG81BJ-60" value="" style="endArrow=none;html=1;rounded=0;entryX=0.5;entryY=1;entryDx=0;entryDy=0;exitX=1;exitY=0;exitDx=0;exitDy=0;" edge="1" parent="1" source="zAUFiaAlxXVagcWG81BJ-2" target="zAUFiaAlxXVagcWG81BJ-48">
          <mxGeometry width="50" height="50" relative="1" as="geometry">
            <mxPoint x="480" y="270" as="sourcePoint" />
            <mxPoint x="530" y="220" as="targetPoint" />
          </mxGeometry>
        </mxCell>
        <mxCell id="zAUFiaAlxXVagcWG81BJ-61" value="" style="endArrow=none;html=1;rounded=0;entryX=0;entryY=0.5;entryDx=0;entryDy=0;exitX=1;exitY=0.2;exitDx=0;exitDy=0;exitPerimeter=0;" edge="1" parent="1" source="zAUFiaAlxXVagcWG81BJ-2" target="zAUFiaAlxXVagcWG81BJ-46">
          <mxGeometry width="50" height="50" relative="1" as="geometry">
            <mxPoint x="630" y="330" as="sourcePoint" />
            <mxPoint x="690" y="270" as="targetPoint" />
          </mxGeometry>
        </mxCell>
        <mxCell id="zAUFiaAlxXVagcWG81BJ-62" value="" style="endArrow=none;html=1;rounded=0;entryX=0;entryY=0.5;entryDx=0;entryDy=0;exitX=1;exitY=0.5;exitDx=0;exitDy=0;" edge="1" parent="1" source="zAUFiaAlxXVagcWG81BJ-2" target="zAUFiaAlxXVagcWG81BJ-47">
          <mxGeometry width="50" height="50" relative="1" as="geometry">
            <mxPoint x="640" y="340" as="sourcePoint" />
            <mxPoint x="700" y="280" as="targetPoint" />
          </mxGeometry>
        </mxCell>
        <mxCell id="zAUFiaAlxXVagcWG81BJ-63" value="" style="endArrow=none;html=1;rounded=0;entryX=0;entryY=0.5;entryDx=0;entryDy=0;exitX=1;exitY=0.75;exitDx=0;exitDy=0;" edge="1" parent="1" source="zAUFiaAlxXVagcWG81BJ-2" target="zAUFiaAlxXVagcWG81BJ-51">
          <mxGeometry width="50" height="50" relative="1" as="geometry">
            <mxPoint x="650" y="350" as="sourcePoint" />
            <mxPoint x="710" y="290" as="targetPoint" />
          </mxGeometry>
        </mxCell>
        <mxCell id="zAUFiaAlxXVagcWG81BJ-64" value="" style="endArrow=none;html=1;rounded=0;entryX=0;entryY=0;entryDx=0;entryDy=0;exitX=1;exitY=1;exitDx=0;exitDy=0;" edge="1" parent="1" source="zAUFiaAlxXVagcWG81BJ-2" target="zAUFiaAlxXVagcWG81BJ-50">
          <mxGeometry width="50" height="50" relative="1" as="geometry">
            <mxPoint x="660" y="360" as="sourcePoint" />
            <mxPoint x="720" y="300" as="targetPoint" />
          </mxGeometry>
        </mxCell>
        <mxCell id="zAUFiaAlxXVagcWG81BJ-65" value="" style="endArrow=none;html=1;rounded=0;entryX=0.5;entryY=0;entryDx=0;entryDy=0;exitX=0.75;exitY=1;exitDx=0;exitDy=0;" edge="1" parent="1" source="zAUFiaAlxXVagcWG81BJ-2" target="zAUFiaAlxXVagcWG81BJ-49">
          <mxGeometry width="50" height="50" relative="1" as="geometry">
            <mxPoint x="670" y="370" as="sourcePoint" />
            <mxPoint x="730" y="310" as="targetPoint" />
          </mxGeometry>
        </mxCell>
        <mxCell id="zAUFiaAlxXVagcWG81BJ-67" value="&lt;b&gt;Location&lt;/b&gt;" style="ellipse;whiteSpace=wrap;html=1;" vertex="1" parent="1">
          <mxGeometry x="-60" y="-90" width="120" height="40" as="geometry" />
        </mxCell>
        <mxCell id="zAUFiaAlxXVagcWG81BJ-68" value="&lt;b&gt;ContactNumber&lt;/b&gt;" style="ellipse;whiteSpace=wrap;html=1;" vertex="1" parent="1">
          <mxGeometry x="10" y="-40" width="120" height="40" as="geometry" />
        </mxCell>
        <mxCell id="zAUFiaAlxXVagcWG81BJ-69" value="&lt;b&gt;StationName&lt;/b&gt;" style="ellipse;whiteSpace=wrap;html=1;" vertex="1" parent="1">
          <mxGeometry x="-60" y="-150" width="120" height="40" as="geometry" />
        </mxCell>
        <mxCell id="zAUFiaAlxXVagcWG81BJ-70" value="&lt;b&gt;&lt;u&gt;StationID&lt;/u&gt;&lt;/b&gt;" style="ellipse;whiteSpace=wrap;html=1;" vertex="1" parent="1">
          <mxGeometry x="30" y="-200" width="120" height="40" as="geometry" />
        </mxCell>
        <mxCell id="zAUFiaAlxXVagcWG81BJ-72" value="" style="endArrow=none;html=1;rounded=0;exitX=1;exitY=0.5;exitDx=0;exitDy=0;entryX=0;entryY=0.75;entryDx=0;entryDy=0;" edge="1" parent="1" source="zAUFiaAlxXVagcWG81BJ-67" target="zAUFiaAlxXVagcWG81BJ-4">
          <mxGeometry width="50" height="50" relative="1" as="geometry">
            <mxPoint x="260" y="-220" as="sourcePoint" />
            <mxPoint x="310" y="-270" as="targetPoint" />
          </mxGeometry>
        </mxCell>
        <mxCell id="zAUFiaAlxXVagcWG81BJ-77" value="" style="endArrow=none;html=1;rounded=0;exitX=1;exitY=0.5;exitDx=0;exitDy=0;entryX=0;entryY=0.25;entryDx=0;entryDy=0;" edge="1" parent="1" source="zAUFiaAlxXVagcWG81BJ-69" target="zAUFiaAlxXVagcWG81BJ-4">
          <mxGeometry width="50" height="50" relative="1" as="geometry">
            <mxPoint x="270" y="-210" as="sourcePoint" />
            <mxPoint x="320" y="-260" as="targetPoint" />
          </mxGeometry>
        </mxCell>
        <mxCell id="zAUFiaAlxXVagcWG81BJ-78" value="" style="endArrow=none;html=1;rounded=0;exitX=1;exitY=1;exitDx=0;exitDy=0;entryX=0.25;entryY=0;entryDx=0;entryDy=0;" edge="1" parent="1" source="zAUFiaAlxXVagcWG81BJ-70" target="zAUFiaAlxXVagcWG81BJ-4">
          <mxGeometry width="50" height="50" relative="1" as="geometry">
            <mxPoint x="280" y="-200" as="sourcePoint" />
            <mxPoint x="330" y="-250" as="targetPoint" />
          </mxGeometry>
        </mxCell>
        <mxCell id="zAUFiaAlxXVagcWG81BJ-79" value="" style="endArrow=none;html=1;rounded=0;exitX=1;exitY=0;exitDx=0;exitDy=0;entryX=0.25;entryY=1;entryDx=0;entryDy=0;" edge="1" parent="1" source="zAUFiaAlxXVagcWG81BJ-68" target="zAUFiaAlxXVagcWG81BJ-4">
          <mxGeometry width="50" height="50" relative="1" as="geometry">
            <mxPoint x="290" y="-190" as="sourcePoint" />
            <mxPoint x="340" y="-240" as="targetPoint" />
          </mxGeometry>
        </mxCell>
        <mxCell id="zAUFiaAlxXVagcWG81BJ-80" value="&lt;b&gt;Address&lt;/b&gt;" style="ellipse;whiteSpace=wrap;html=1;" vertex="1" parent="1">
          <mxGeometry x="690" y="-50" width="120" height="40" as="geometry" />
        </mxCell>
        <mxCell id="zAUFiaAlxXVagcWG81BJ-81" value="&lt;b&gt;CrimeInvolved&lt;/b&gt;" style="ellipse;whiteSpace=wrap;html=1;" vertex="1" parent="1">
          <mxGeometry x="670" width="120" height="40" as="geometry" />
        </mxCell>
        <mxCell id="zAUFiaAlxXVagcWG81BJ-82" value="&lt;b&gt;&lt;u&gt;VictimID&lt;/u&gt;&lt;/b&gt;" style="ellipse;whiteSpace=wrap;html=1;" vertex="1" parent="1">
          <mxGeometry x="350" y="-120" width="120" height="40" as="geometry" />
        </mxCell>
        <mxCell id="zAUFiaAlxXVagcWG81BJ-83" value="&lt;b&gt;VictimName&lt;/b&gt;" style="ellipse;whiteSpace=wrap;html=1;" vertex="1" parent="1">
          <mxGeometry x="460" y="-160" width="120" height="40" as="geometry" />
        </mxCell>
        <mxCell id="zAUFiaAlxXVagcWG81BJ-84" value="&lt;b&gt;VictimAge&lt;/b&gt;" style="ellipse;whiteSpace=wrap;html=1;" vertex="1" parent="1">
          <mxGeometry x="600" y="-150" width="120" height="40" as="geometry" />
        </mxCell>
        <mxCell id="zAUFiaAlxXVagcWG81BJ-85" value="&lt;b&gt;Gender&lt;/b&gt;" style="ellipse;whiteSpace=wrap;html=1;" vertex="1" parent="1">
          <mxGeometry x="680" y="-100" width="120" height="40" as="geometry" />
        </mxCell>
        <mxCell id="zAUFiaAlxXVagcWG81BJ-86" value="" style="endArrow=none;html=1;rounded=0;entryX=1;entryY=1;entryDx=0;entryDy=0;exitX=0;exitY=0;exitDx=0;exitDy=0;" edge="1" parent="1" source="zAUFiaAlxXVagcWG81BJ-5" target="zAUFiaAlxXVagcWG81BJ-82">
          <mxGeometry width="50" height="50" relative="1" as="geometry">
            <mxPoint x="340" y="-10" as="sourcePoint" />
            <mxPoint x="390" y="-60" as="targetPoint" />
          </mxGeometry>
        </mxCell>
        <mxCell id="zAUFiaAlxXVagcWG81BJ-87" value="" style="endArrow=none;html=1;rounded=0;entryX=0.5;entryY=1;entryDx=0;entryDy=0;exitX=0.25;exitY=0;exitDx=0;exitDy=0;" edge="1" parent="1" source="zAUFiaAlxXVagcWG81BJ-5" target="zAUFiaAlxXVagcWG81BJ-83">
          <mxGeometry width="50" height="50" relative="1" as="geometry">
            <mxPoint x="320" y="30" as="sourcePoint" />
            <mxPoint x="370" y="-20" as="targetPoint" />
          </mxGeometry>
        </mxCell>
        <mxCell id="zAUFiaAlxXVagcWG81BJ-88" value="" style="endArrow=none;html=1;rounded=0;entryX=0;entryY=1;entryDx=0;entryDy=0;exitX=0.5;exitY=0;exitDx=0;exitDy=0;" edge="1" parent="1" source="zAUFiaAlxXVagcWG81BJ-5" target="zAUFiaAlxXVagcWG81BJ-84">
          <mxGeometry width="50" height="50" relative="1" as="geometry">
            <mxPoint x="360" y="-10" as="sourcePoint" />
            <mxPoint x="410" y="-60" as="targetPoint" />
          </mxGeometry>
        </mxCell>
        <mxCell id="zAUFiaAlxXVagcWG81BJ-89" value="" style="endArrow=none;html=1;rounded=0;entryX=0;entryY=0.5;entryDx=0;entryDy=0;exitX=1;exitY=0;exitDx=0;exitDy=0;" edge="1" parent="1" source="zAUFiaAlxXVagcWG81BJ-5" target="zAUFiaAlxXVagcWG81BJ-85">
          <mxGeometry width="50" height="50" relative="1" as="geometry">
            <mxPoint x="500" y="80" as="sourcePoint" />
            <mxPoint x="550" y="30" as="targetPoint" />
          </mxGeometry>
        </mxCell>
        <mxCell id="zAUFiaAlxXVagcWG81BJ-90" value="" style="endArrow=none;html=1;rounded=0;entryX=0;entryY=0.5;entryDx=0;entryDy=0;exitX=1;exitY=0.5;exitDx=0;exitDy=0;" edge="1" parent="1" source="zAUFiaAlxXVagcWG81BJ-5" target="zAUFiaAlxXVagcWG81BJ-80">
          <mxGeometry width="50" height="50" relative="1" as="geometry">
            <mxPoint x="440" y="90" as="sourcePoint" />
            <mxPoint x="490" y="40" as="targetPoint" />
          </mxGeometry>
        </mxCell>
        <mxCell id="zAUFiaAlxXVagcWG81BJ-91" value="" style="endArrow=none;html=1;rounded=0;entryX=0;entryY=0.5;entryDx=0;entryDy=0;exitX=1;exitY=1;exitDx=0;exitDy=0;" edge="1" parent="1" source="zAUFiaAlxXVagcWG81BJ-5" target="zAUFiaAlxXVagcWG81BJ-81">
          <mxGeometry width="50" height="50" relative="1" as="geometry">
            <mxPoint x="480" y="110" as="sourcePoint" />
            <mxPoint x="530" y="60" as="targetPoint" />
          </mxGeometry>
        </mxCell>
      </root>
    </mxGraphModel>
  </diagram>
</mxfile>
